<svg width="158" height="130" viewBox="0 0 158 130" fill="none" xmlns="http://www.w3.org/2000/svg">
<path d="M85.6078 62.6683C81.075 62.6683 76.6517 62.6683 72.0523 62.6683C72.0523 63.3878 72.0523 64.1185 72.0523 64.8462C72.0498 68.1115 70.4765 70.34 67.3909 71.3707C62.2435 73.0892 57.746 75.8093 54.0387 79.8676C50.8118 83.4068 48.5962 87.4862 47.4356 92.1327C46.0823 97.5504 45.7043 103.004 47.4013 108.425C49.014 113.58 52.2661 117.579 56.325 120.968C57.14 121.646 57.9857 122.289 58.8475 122.899C60.5299 124.092 61.1339 125.588 60.604 127.378C60.1332 128.97 58.5478 129.961 56.7595 129.998C52.3584 129.998 15.0905 129.886 3.59525 129.88C2.64812 129.879 2.36202 129.618 1.79788 129.618C1.29934 129.619 1.18025 129.195 1.02887 129.197C0.806346 128.652 0.638822 128.903 0.443039 128.597C0.221521 128.25 0.0671113 128.226 0 126.849C0.541432 126.191 1.88719 125.212 2.10922 124.016C2.87116 123.79 1.10204 124.563 1.56829 124.31C1.57888 124.303 1.69443 124.191 1.94774 124.088C2.04715 124.047 2.10922 123.904 2.22679 123.829C3.15525 123.246 4.78762 122.243 4.88702 122.14C5.4441 121.564 5.93607 121.018 6.38062 120.498C7.44734 119.253 19.8427 94.2922 31.0009 70.6614C45.062 40.8822 61.695 7.40391 65.0768 2.86825C65.7282 1.99137 66.9579 1.08383 67.6946 0.82424C70.6909 -0.23098 72.7002 0.028099 73.2916 0.028099C77.069 0.028099 79.927 0.0280978 83.4764 0.0444499C85.8177 0.078687 87.7639 0.0286136 89.9796 0.0286136C90.8838 0.0286136 92.4022 0.606556 93.1207 1.08792C94.8429 2.23819 96.007 4.19993 96.9829 6.23576C98.6143 9.64108 143.37 104.239 151.618 119.538C152.246 120.703 152.797 121.253 152.966 121.422C155.461 123.495 154.826 122.932 156.372 123.616C157.609 124.165 158.027 125.329 157.999 126.835C157.83 129.441 157.174 129.822 156.063 129.999C154.09 129.999 152.035 129.996 150.257 129.999C142.024 130.013 109.042 129.917 100.814 129.999C99.9434 130.007 99.1496 129.76 98.5002 129.341C98.0521 129.053 97.6076 129.105 97.319 128.681C96.6539 127.71 96.5242 126.035 97.054 124.836C97.4012 124.057 98.1414 123.383 98.8454 122.849C104.157 118.813 108.111 113.76 110.067 107.28C113.197 96.9254 109.806 83.741 100.439 76.8062C97.4466 74.591 94.3206 72.684 90.7774 71.64C87.551 70.686 85.3212 68.1458 85.5916 64.3935C85.6396 63.859 85.6078 63.3224 85.6078 62.6683ZM78.8699 41.2134C76.4791 41.2134 74.0873 41.2072 71.6976 41.2159C69.5747 41.2241 68.0504 42.7597 68.0443 44.8865C68.0393 47.7358 68.1382 50.5897 68.0115 53.4325C67.9237 55.3814 69.277 57.3682 71.743 57.3973C76.4181 57.4484 81.0962 57.4719 85.7733 57.4081C88.2912 57.3743 89.6112 55.8761 89.6112 53.3502C89.6112 50.5361 89.6213 47.721 89.6102 44.9089C89.6037 42.8542 87.9829 41.2267 85.9378 41.219C83.5833 41.2067 81.2269 41.2134 78.8699 41.2134Z" fill="#854289"/>
<path d="M141.771 127.204C141.768 130.465 143.108 129.971 144.755 129.971C146.402 129.971 147.737 128.825 147.737 127.204C147.737 125.584 146.402 124.271 144.755 124.271C143.107 124.268 141.771 125.584 141.771 127.204Z" fill="#854289"/>
<path d="M3.56037e-06 127.204C-0.00251942 130.465 1.33618 129.971 2.98318 129.971C4.63018 129.971 5.96585 128.825 5.96585 127.204C5.96585 125.584 4.62967 124.271 2.98318 124.271C1.33618 124.268 3.56037e-06 125.584 3.56037e-06 127.204Z" fill="#854289"/>
</svg>
