<svg width="44" height="51" viewBox="0 0 44 51" fill="none" xmlns="http://www.w3.org/2000/svg">
<path d="M6.40039 29.4663C6.40039 34.2637 10.5208 38.1551 15.6004 38.1551H28.4004C33.48 38.1551 37.6004 34.2637 37.6004 29.4663V17.3774C37.6004 12.58 33.48 8.68848 28.4004 8.68848H15.6004C10.5208 8.68848 6.40039 12.58 6.40039 17.3774V29.4663ZM30.4004 13.9774C31.5207 13.9774 32.4004 14.8082 32.4004 15.8663C32.4004 16.9243 31.5207 17.7551 30.4004 17.7551C29.2801 17.7551 28.4004 16.9243 28.4004 15.8663C28.4004 14.8082 29.2801 13.9774 30.4004 13.9774ZM22.0004 16.244C26.2004 16.244 29.6004 19.4551 29.6004 23.4218C29.6004 27.3885 26.2004 30.5996 22.0004 30.5996C17.8004 30.5996 14.4004 27.3885 14.4004 23.4218C14.4004 19.4551 17.8004 16.244 22.0004 16.244Z" fill="#E8E3DE"/>
<path d="M27.1998 23.4219C27.1998 26.1342 24.8717 28.333 21.9998 28.333C19.1279 28.333 16.7998 26.1342 16.7998 23.4219C16.7998 20.7095 19.1279 18.5107 21.9998 18.5107C24.8717 18.5107 27.1998 20.7095 27.1998 23.4219Z" fill="#E8E3DE"/>
</svg>
