<svg width="139" height="106" viewBox="0 0 139 106" fill="none" xmlns="http://www.w3.org/2000/svg">
<path d="M69.9385 25.9327C68.0741 25.9327 66.2547 25.9327 64.3629 25.9327C64.3629 26.2305 64.3629 26.5328 64.3629 26.834C64.3618 28.1852 63.7147 29.1073 62.4455 29.5339C60.3283 30.245 58.4785 31.3706 56.9536 33.05C55.6263 34.5145 54.715 36.2026 54.2376 38.1254C53.681 40.3672 53.5255 42.6241 54.2235 44.8673C54.8868 47.0005 56.2245 48.6553 57.894 50.0575C58.2292 50.3383 58.577 50.6041 58.9315 50.8566C59.6235 51.3506 59.8719 51.9693 59.654 52.71C59.4604 53.3691 58.8083 53.7792 58.0727 53.7944C56.2625 53.7944 40.9335 53.7481 36.2053 53.7455C35.8158 53.7453 35.6981 53.6371 35.4661 53.6373C35.261 53.6375 35.212 53.4622 35.1498 53.463C35.0582 53.2372 34.9893 53.3414 34.9088 53.2146C34.8177 53.0712 34.7542 53.061 34.7266 52.4912C34.9493 52.2188 35.5028 51.8141 35.5941 51.319C35.9075 51.2254 35.1798 51.5453 35.3716 51.4406C35.376 51.4379 35.4235 51.3916 35.5277 51.3489C35.5686 51.332 35.5941 51.2727 35.6425 51.2417C36.0244 51.0004 36.6958 50.5851 36.7367 50.5426C36.9658 50.3045 37.1682 50.0782 37.351 49.8634C37.7898 49.3481 42.8882 39.019 47.4777 29.2403C53.2613 16.9174 60.1027 3.06381 61.4937 1.18691C61.7617 0.824047 62.2675 0.448499 62.5705 0.341078C63.8029 -0.0955817 64.6294 0.0116276 64.8726 0.0116276C66.4263 0.0116276 67.6019 0.0116271 69.0618 0.0183938C70.0248 0.0325614 70.8253 0.0118406 71.7367 0.0118406C72.1086 0.0118406 72.7331 0.250999 73.0287 0.450192C73.737 0.926183 74.2159 1.73797 74.6172 2.58042C75.2883 3.98957 93.697 43.1352 97.0896 49.4658C97.348 49.9482 97.5744 50.1755 97.644 50.2457C98.6701 51.1036 98.409 50.8703 99.0449 51.1535C99.5538 51.3808 99.7257 51.8625 99.7141 52.4855C99.6447 53.5637 99.3747 53.7214 98.9179 53.7946C98.1064 53.7946 97.261 53.7937 96.5296 53.7946C93.1435 53.8005 79.5772 53.7607 76.1932 53.7946C75.8349 53.7982 75.5085 53.6958 75.2413 53.5227C75.057 53.4034 74.8742 53.4247 74.7555 53.2492C74.4819 52.8477 74.4286 52.1543 74.6465 51.6584C74.7893 51.336 75.0938 51.0571 75.3833 50.8361C77.5682 49.166 79.1945 47.0751 79.999 44.3936C81.2862 40.1086 79.8915 34.6528 76.039 31.7831C74.808 30.8665 73.5222 30.0773 72.0648 29.6453C70.7377 29.2505 69.8206 28.1993 69.9318 26.6466C69.9515 26.4254 69.9385 26.2034 69.9385 25.9327ZM67.1671 17.0545C66.1837 17.0545 65.1999 17.0519 64.217 17.0555C63.3438 17.0589 62.7168 17.6943 62.7143 18.5744C62.7122 19.7535 62.7529 20.9345 62.7008 22.1108C62.6647 22.9173 63.2214 23.7395 64.2357 23.7515C66.1586 23.7727 68.0828 23.7824 70.0065 23.756C71.0422 23.742 71.5852 23.122 71.5852 22.0768C71.5852 20.9123 71.5893 19.7474 71.5848 18.5837C71.5821 17.7335 70.9154 17.06 70.0742 17.0568C69.1058 17.0517 68.1365 17.0545 67.1671 17.0545Z" fill="#E8E3DE"/>
<path d="M93.0391 52.6384C93.0378 53.9879 93.5889 53.7834 94.2661 53.7834C94.9435 53.7834 95.4929 53.3089 95.4929 52.6384C95.4929 51.9678 94.9435 51.4248 94.2661 51.4248C93.5884 51.4235 93.0391 51.9678 93.0391 52.6384Z" fill="#E8E3DE"/>
<path d="M34.7266 52.6384C34.7255 53.9879 35.2762 53.7834 35.9536 53.7834C36.631 53.7834 37.1804 53.3089 37.1804 52.6384C37.1804 51.9678 36.6308 51.4248 35.9536 51.4248C35.2762 51.4235 34.7266 51.9678 34.7266 52.6384Z" fill="#E8E3DE"/>
<path d="M9.47025 59.7773L15.2688 73.0632C15.6232 73.8372 15.9057 74.4176 16.117 74.8046C16.3279 75.1915 16.5304 75.4537 16.7247 75.5914C16.9186 75.7293 17.1425 75.8236 17.3957 75.8752C17.463 76.0991 17.5097 76.3395 17.535 76.5975C17.5603 76.8555 17.573 77.1395 17.573 77.4488C17.3027 77.4142 16.9482 77.3926 16.5095 77.3841C16.0703 77.3755 15.6272 77.3712 15.1801 77.3712C14.7327 77.3712 14.3738 77.3712 14.104 77.3712C13.9014 77.3712 13.6312 77.3712 13.2937 77.3712C12.9558 77.3712 12.6013 77.3755 12.2302 77.3841C11.8587 77.3926 11.5086 77.4011 11.1794 77.4099C10.8502 77.4184 10.5927 77.4315 10.4071 77.4488C10.4071 77.105 10.4237 76.8083 10.4578 76.5588C10.4914 76.3095 10.542 76.0816 10.6097 75.8752C11.234 75.7551 11.6055 75.5656 11.7238 75.3076C11.8417 75.0494 11.7491 74.5768 11.4453 73.8887L8.8119 67.6457C8.45741 66.8548 8.17016 66.1236 7.95099 65.4529C7.7314 64.7821 7.52884 64.0856 7.34329 63.3632H7.90035C7.69778 64.1029 7.4865 64.821 7.26732 65.5176C7.04774 66.2141 6.79453 66.9233 6.5077 67.6457L4.27945 73.5018C4.02624 74.1899 3.96688 74.7399 4.1022 75.1528C4.23711 75.5656 4.60862 75.8067 5.21633 75.8752C5.28357 76.0818 5.33027 76.3182 5.35559 76.5846C5.38091 76.8515 5.39357 77.1393 5.39357 77.4488C5.20761 77.4315 4.95876 77.4184 4.64661 77.4099C4.33404 77.4011 4.00486 77.3926 3.65909 77.3841C3.3129 77.3755 2.99638 77.3712 2.70955 77.3712C2.2874 77.3712 1.86524 77.3755 1.4435 77.3841C1.02135 77.3926 0.683874 77.4142 0.430664 77.4488C0.430664 77.1566 0.447268 76.8811 0.481306 76.6233C0.514929 76.3653 0.573873 76.1162 0.658553 75.8752C0.945385 75.8236 1.19029 75.7164 1.39286 75.5529C1.59543 75.3897 1.79364 75.1186 1.9879 74.7401C2.18175 74.362 2.414 73.846 2.68423 73.1924L7.97631 59.9065C8.24613 59.838 8.48667 59.7993 8.69796 59.7905C8.90883 59.782 9.1664 59.7773 9.47025 59.7773ZM10.8123 70.9996L11.1921 72.4185C10.0609 72.4185 8.87521 72.4358 7.63448 72.4701C6.39375 72.5048 5.19931 72.5646 4.05156 72.6507L4.4567 70.9996H10.8123Z" fill="#E8E3DE"/>
<path d="M27.1701 75.7985C27.9127 75.7985 28.5204 75.6871 28.9932 75.4631C29.4656 75.2399 29.8581 74.8787 30.1706 74.3796C30.4828 73.8812 30.757 73.2278 30.9936 72.4192C31.4153 72.4881 31.7868 72.5869 32.1077 72.7157C32.4281 72.8447 32.6901 72.9954 32.8926 73.1674C32.7067 73.7522 32.5464 74.4274 32.4115 75.1925C32.2762 75.9577 32.1749 76.7017 32.1077 77.424C31.6855 77.4067 31.1494 77.3982 30.4998 77.3982C29.8498 77.3982 29.1534 77.3938 28.4108 77.3851C27.6678 77.3764 26.9675 77.3722 26.3092 77.3722C25.8534 77.3722 25.2793 77.3764 24.5874 77.3851C23.895 77.3935 23.186 77.402 22.4604 77.4109C21.7344 77.4193 21.0634 77.4278 20.4474 77.4367C19.831 77.4451 19.3712 77.4498 19.0674 77.4498C19.0674 77.1402 19.08 76.8478 19.1054 76.5727C19.1307 76.2978 19.177 76.0658 19.2446 75.8761C19.7004 75.8419 20.0505 75.7516 20.2954 75.6052C20.5399 75.4596 20.7132 75.1969 20.8145 74.8184C20.9158 74.4403 20.9665 73.8812 20.9665 73.1416V63.9831C20.9665 63.3124 20.9198 62.8009 20.8272 62.4481C20.7342 62.0959 20.5613 61.8508 20.3081 61.7129C20.0549 61.5755 19.7004 61.4805 19.2446 61.4289C19.177 61.2399 19.1346 60.9906 19.118 60.681C19.101 60.3712 19.0927 60.0963 19.0927 59.8555C19.5315 59.8728 19.9536 59.8857 20.3588 59.8942C20.7639 59.903 21.173 59.9115 21.5868 59.92C22.0003 59.9288 22.4264 59.9331 22.8655 59.9331C23.2536 59.9331 23.6714 59.9288 24.1189 59.92C24.566 59.9115 25.0091 59.903 25.4483 59.8942C25.887 59.8857 26.2751 59.8728 26.613 59.8555C26.613 60.1481 26.6043 60.4319 26.5877 60.7068C26.5707 60.9821 26.52 61.2225 26.4358 61.4289C25.9966 61.4636 25.6508 61.5541 25.3976 61.6998C25.1444 61.8461 24.9711 62.0957 24.8785 62.4479C24.7856 62.8007 24.7393 63.3295 24.7393 64.0345V73.0895C24.7393 73.8119 24.7982 74.3665 24.9165 74.7535C25.0344 75.1405 25.2496 75.4111 25.5622 75.5661C25.8744 75.7209 26.3092 75.7983 26.8662 75.7983L27.1701 75.7985Z" fill="#E8E3DE"/>
<path d="M42.6913 77.6041C40.9354 77.6041 39.4205 77.2171 38.1462 76.4434C36.8714 75.6695 35.8839 74.6075 35.1836 73.2574C34.4829 71.9074 34.1328 70.3467 34.1328 68.5751C34.1328 67.2334 34.348 66.0168 34.7785 64.9245C35.209 63.8325 35.8079 62.8953 36.5763 62.1125C37.3442 61.3301 38.2475 60.7323 39.2856 60.3196C40.3238 59.9068 41.4589 59.7002 42.6913 59.7002C44.3961 59.7002 45.89 60.0614 47.1731 60.7837C48.4558 61.506 49.4603 62.521 50.1863 63.8278C50.9119 65.1351 51.2751 66.6656 51.2751 68.4199C51.2751 69.7444 51.0725 70.9654 50.6674 72.0831C50.2623 73.2013 49.6799 74.1728 48.9203 74.9983C48.1606 75.8236 47.253 76.4648 46.1983 76.9202C45.1431 77.3761 43.974 77.6041 42.6913 77.6041ZM43.0964 75.9532C43.991 75.9532 44.7506 75.6566 45.3753 75.0632C45.9996 74.4699 46.4768 73.6532 46.806 72.6124C47.1351 71.5721 47.2997 70.3725 47.2997 69.0134C47.2997 67.5861 47.0884 66.2877 46.6667 65.1179C46.2445 63.9486 45.6539 63.0199 44.8942 62.3318C44.1346 61.6441 43.2567 61.2999 42.2608 61.2999C41.4336 61.2999 40.7075 61.5667 40.0832 62.0996C39.4585 62.6327 38.9691 63.3937 38.6146 64.3827C38.2601 65.3719 38.0829 66.5542 38.0829 67.9297C38.0829 68.979 38.1881 69.9895 38.3994 70.9609C38.6103 71.933 38.9224 72.7926 39.3363 73.5407C39.7497 74.2889 40.2688 74.8782 40.8935 75.3079C41.5178 75.7384 42.2521 75.9532 43.0964 75.9532ZM48.743 82.5831C48.1519 82.3767 47.6708 82.0885 47.2997 81.7188C46.9282 81.3488 46.599 80.9489 46.3122 80.5192C46.025 80.0891 45.7298 79.6681 45.426 79.2552C45.1221 78.8424 44.7589 78.485 44.3372 78.1845C43.915 77.8834 43.3662 77.6899 42.6913 77.6041L45.2487 76.753C45.9407 76.9076 46.5401 77.1186 47.0465 77.3848C47.5529 77.6515 48.0126 77.9306 48.4265 78.2234C48.8399 78.5157 49.2534 78.7866 49.6672 79.0361C50.0807 79.2852 50.5447 79.4787 51.0599 79.6165C51.5746 79.7538 52.1867 79.7971 52.8956 79.7453C52.9123 80.0035 52.8996 80.2784 52.8577 80.5708C52.8153 80.8631 52.7603 81.1297 52.6931 81.3706C52.0347 81.4738 51.3764 81.6241 50.718 81.822C50.0597 82.0197 49.4014 82.2735 48.743 82.5831Z" fill="#E8E3DE"/>
<path d="M66.9486 70.3296C66.9486 71.8087 66.8477 73.0039 66.6449 73.9155C66.4422 74.8273 66.0453 75.5839 65.4548 76.1855C64.9486 76.6672 64.3364 77.0239 63.6189 77.2561C62.9014 77.4883 62.0784 77.6042 61.1503 77.6042C59.5297 77.6042 58.2467 77.3762 57.3015 76.9207C56.3559 76.4652 55.6849 75.7687 55.2885 74.8311C54.8916 73.8937 54.6934 72.7201 54.6934 71.3097V64.0605C54.6934 63.3382 54.6511 62.8009 54.5668 62.4481C54.4821 62.0959 54.3263 61.8548 54.0984 61.7258C53.8705 61.597 53.537 61.4981 53.0982 61.4291C53.0476 61.2058 53.0096 60.9565 52.9843 60.6812C52.9589 60.4061 52.9463 60.1308 52.9463 59.8557C53.2838 59.873 53.7478 59.8904 54.3389 59.9073C54.9296 59.9246 55.529 59.9331 56.1367 59.9331C56.4406 59.9331 56.7864 59.9331 57.1749 59.9331C57.563 59.9331 57.9598 59.9288 58.365 59.92C58.7701 59.9115 59.1412 59.903 59.4791 59.8942C59.8166 59.8857 60.0868 59.8728 60.2894 59.8555C60.2894 60.1481 60.2807 60.423 60.264 60.681C60.247 60.939 60.2047 61.1883 60.1374 61.4289C59.6817 61.4805 59.3311 61.5753 59.0866 61.7129C58.8417 61.8506 58.6771 62.0959 58.5929 62.4481C58.5082 62.8009 58.4663 63.3382 58.4663 64.0605V70.8969C58.4663 71.9119 58.5802 72.7931 58.8081 73.5412C59.036 74.2893 59.4114 74.8613 59.9349 75.2568C60.4579 75.6526 61.1503 75.8501 62.0112 75.8501C62.4163 75.8501 62.8424 75.7727 63.2899 75.6179C63.7368 75.4631 64.113 75.1967 64.4167 74.8182C64.6361 74.5602 64.8092 74.2551 64.936 73.9024C65.0624 73.5501 65.1593 73.0813 65.227 72.4966C65.2942 71.9119 65.3282 71.1723 65.3282 70.278V64.8089C65.3282 63.9664 65.2776 63.3126 65.1763 62.8484C65.075 62.3841 64.9019 62.0487 64.657 61.8421C64.4121 61.6357 64.0624 61.4983 63.6064 61.4293C63.5558 61.1371 63.5217 60.8618 63.5051 60.604C63.4881 60.346 63.4798 60.097 63.4798 59.8559C63.6992 59.8732 63.9609 59.8861 64.2646 59.8946C64.5686 59.9035 64.8851 59.9119 65.2143 59.9204C65.5435 59.9293 65.8345 59.9335 66.0879 59.9335C66.5264 59.9335 66.9822 59.925 67.4552 59.9077C67.9274 59.8908 68.3244 59.8734 68.6453 59.8561C68.6453 60.1141 68.6364 60.368 68.6198 60.6171C68.6027 60.8669 68.5606 61.1375 68.4934 61.4298C68.071 61.4814 67.7503 61.6063 67.531 61.804C67.3112 62.002 67.1596 62.3287 67.0754 62.7844C66.9907 63.2403 66.9486 63.8725 66.9486 64.6805V70.3296Z" fill="#E8E3DE"/>
<path d="M72.4681 63.9831C72.4681 63.3124 72.4259 62.8009 72.3417 62.4481C72.257 62.0959 72.0924 61.8508 71.8479 61.7129C71.603 61.5755 71.2529 61.4805 70.7969 61.4289C70.7296 61.2399 70.679 60.9995 70.6454 60.7068C70.6113 60.4144 70.5947 60.1306 70.5947 59.8555C70.8984 59.8728 71.274 59.8857 71.7213 59.8942C72.1684 59.903 72.637 59.9115 73.1266 59.92C73.6158 59.9288 74.055 59.9331 74.4433 59.9331C74.8316 59.9331 75.2451 59.9288 75.6842 59.92C76.1228 59.9115 76.5578 59.903 76.9883 59.8942C77.4187 59.8857 77.8027 59.8728 78.1404 59.8555C78.1404 60.1481 78.1319 60.423 78.1153 60.681C78.0982 60.939 78.0476 61.1883 77.9633 61.4289C77.5073 61.4636 77.157 61.5541 76.9125 61.6998C76.6672 61.8461 76.4987 62.0957 76.4059 62.4479C76.3131 62.8007 76.2668 63.3122 76.2668 63.9829V73.2959C76.2668 73.9669 76.3131 74.4873 76.4059 74.8569C76.4987 75.2267 76.6718 75.4803 76.9252 75.6179C77.1782 75.7556 77.524 75.8417 77.9633 75.8759C78.0306 76.048 78.0773 76.2802 78.1024 76.5724C78.1279 76.8651 78.1406 77.1576 78.1406 77.4496C77.7016 77.4149 77.1697 77.3933 76.5454 77.3849C75.9206 77.3762 75.2623 77.372 74.5703 77.372C73.8779 77.372 73.1731 77.3762 72.4558 77.3849C71.7379 77.3933 71.1177 77.4149 70.5947 77.4496C70.5947 77.1747 70.6155 76.8907 70.658 76.5982C70.6997 76.306 70.7469 76.0654 70.7971 75.8759C71.2531 75.8417 71.6034 75.7558 71.8481 75.6179C72.0926 75.4805 72.2572 75.2267 72.3419 74.8569C72.4261 74.4873 72.4683 73.9669 72.4683 73.2959V63.9831H72.4681Z" fill="#E8E3DE"/>
<path d="M89.9643 77.6044L83.9633 63.9831H84.4443L83.6592 71.8773C83.5583 72.9438 83.5413 73.7567 83.6086 74.3151C83.6758 74.8742 83.8449 75.2612 84.1152 75.476C84.3848 75.6913 84.7565 75.8241 85.2291 75.8759C85.2963 76.0998 85.3389 76.3532 85.3559 76.6372C85.3721 76.9209 85.381 77.1918 85.381 77.4498C85.0599 77.4151 84.638 77.3935 84.115 77.3851C83.5917 77.3764 83.1019 77.3722 82.6464 77.3722C82.3423 77.3722 82.0046 77.3764 81.6333 77.3851C81.262 77.3935 80.9073 77.402 80.57 77.4109C80.2319 77.4193 79.9623 77.4325 79.7598 77.4498C79.7598 77.1918 79.7724 76.9209 79.798 76.6372C79.8231 76.3532 79.8694 76.0998 79.937 75.8759C80.376 75.8243 80.7303 75.6913 81.0007 75.476C81.2703 75.261 81.4899 74.8698 81.659 74.3022C81.8278 73.7345 81.9542 72.909 82.0389 71.8254L82.7223 64.1637C82.7896 63.4244 82.7856 62.8609 82.7097 62.4739C82.6337 62.087 82.4647 61.8161 82.2034 61.6613C81.9415 61.5065 81.5744 61.4289 81.102 61.4289C81.0173 61.1883 80.9667 60.939 80.9501 60.681C80.933 60.4228 80.9245 60.1479 80.9245 59.8555C81.1439 59.8728 81.4222 59.8857 81.7603 59.8942C82.0976 59.903 82.4438 59.9115 82.7985 59.92C83.1528 59.9288 83.4479 59.9331 83.6847 59.9331C83.9381 59.9331 84.2418 59.9288 84.5965 59.92C84.9508 59.9115 85.2926 59.903 85.6216 59.8942C85.9507 59.8857 86.2166 59.8728 86.4194 59.8555L92.2434 73.4509H91.4838L96.5224 59.8555C96.7759 59.8728 97.0795 59.8857 97.4342 59.8942C97.7885 59.903 98.1388 59.9115 98.485 59.92C98.8308 59.9288 99.1307 59.9331 99.3841 59.9331C99.6201 59.9331 99.903 59.9288 100.232 59.92C100.561 59.9115 100.894 59.903 101.232 59.8942C101.57 59.8857 101.857 59.8728 102.093 59.8555C102.093 60.1308 102.08 60.4061 102.055 60.681C102.03 60.9563 101.983 61.2056 101.916 61.4289C101.223 61.4289 100.747 61.6224 100.485 62.0094C100.223 62.3963 100.143 63.1407 100.244 64.2411L101.055 72.4706C101.139 73.3993 101.249 74.1003 101.384 74.5729C101.519 75.0462 101.709 75.3642 101.954 75.5276C102.198 75.6911 102.532 75.7983 102.954 75.8499C103.021 76.0738 103.063 76.3231 103.08 76.598C103.097 76.8734 103.106 77.1573 103.106 77.4494C102.92 77.432 102.663 77.4189 102.333 77.4105C102.004 77.4016 101.637 77.3931 101.232 77.3847C100.827 77.376 100.434 77.3718 100.054 77.3718C99.6745 77.3718 99.3495 77.3718 99.0795 77.3718C98.7248 77.3718 98.3198 77.376 97.8643 77.3847C97.4083 77.3931 96.9737 77.4016 96.5602 77.4105C96.1464 77.4189 95.813 77.432 95.5598 77.4494C95.5598 77.1571 95.5764 76.8816 95.6105 76.6238C95.6441 76.3659 95.6947 76.1168 95.7624 75.8757C96.2854 75.8072 96.6696 75.6911 96.9145 75.5276C97.159 75.3644 97.2985 75.0722 97.3325 74.6505C97.3661 74.2293 97.3406 73.6059 97.2568 72.7802L96.345 63.9829H96.7499L91.4578 77.3978C91.2721 77.4663 91.0403 77.5179 90.7617 77.5524C90.4832 77.587 90.2177 77.6044 89.9643 77.6044Z" fill="#E8E3DE"/>
<path d="M106.6 63.9831C106.6 63.3124 106.558 62.8009 106.473 62.4481C106.389 62.0959 106.224 61.8508 105.98 61.7129C105.735 61.5755 105.385 61.4805 104.929 61.4289C104.861 61.2399 104.811 60.9995 104.777 60.7068C104.743 60.4144 104.727 60.1306 104.727 59.8555C105.03 59.8728 105.406 59.8857 105.853 59.8942C106.3 59.903 106.769 59.9115 107.258 59.92C107.748 59.9288 108.187 59.9331 108.575 59.9331C108.963 59.9331 109.377 59.9288 109.816 59.92C110.255 59.9115 110.69 59.903 111.12 59.8942C111.551 59.8857 111.935 59.8728 112.272 59.8555C112.272 60.1481 112.264 60.423 112.247 60.681C112.23 60.939 112.179 61.1883 112.095 61.4289C111.639 61.4636 111.289 61.5541 111.044 61.6998C110.799 61.8461 110.63 62.0957 110.538 62.4479C110.445 62.8007 110.399 63.3122 110.399 63.9829V73.2959C110.399 73.9669 110.445 74.4873 110.538 74.8569C110.63 75.2267 110.804 75.4803 111.057 75.6179C111.31 75.7556 111.656 75.8417 112.095 75.8759C112.162 76.048 112.209 76.2802 112.234 76.5724C112.26 76.8651 112.272 77.1576 112.272 77.4496C111.833 77.4149 111.301 77.3933 110.677 77.3849C110.052 77.3762 109.394 77.372 108.702 77.372C108.01 77.372 107.305 77.3762 106.588 77.3849C105.87 77.3933 105.25 77.4149 104.727 77.4496C104.727 77.1747 104.747 76.8907 104.79 76.5982C104.832 76.306 104.879 76.0654 104.929 75.8759C105.385 75.8417 105.735 75.7558 105.98 75.6179C106.224 75.4805 106.389 75.2267 106.474 74.8569C106.558 74.4873 106.6 73.9669 106.6 73.2959L106.6 63.9831Z" fill="#E8E3DE"/>
<path d="M122.805 59.7773L128.604 73.0632C128.958 73.8372 129.24 74.4176 129.452 74.8046C129.663 75.1915 129.865 75.4537 130.059 75.5914C130.253 75.7293 130.477 75.8236 130.731 75.8752C130.798 76.0991 130.845 76.3395 130.87 76.5975C130.895 76.8555 130.908 77.1395 130.908 77.4488C130.637 77.4142 130.283 77.3926 129.844 77.3841C129.405 77.3755 128.962 77.3712 128.515 77.3712C128.068 77.3712 127.709 77.3712 127.439 77.3712C127.236 77.3712 126.966 77.3712 126.628 77.3712C126.291 77.3712 125.936 77.3755 125.565 77.3841C125.193 77.3926 124.844 77.4011 124.514 77.4099C124.185 77.4184 123.927 77.4315 123.742 77.4488C123.742 77.105 123.758 76.8083 123.792 76.5588C123.826 76.3095 123.877 76.0816 123.944 75.8752C124.569 75.7551 124.94 75.5656 125.059 75.3076C125.176 75.0494 125.084 74.5768 124.78 73.8887L122.147 67.6457C121.792 66.8548 121.505 66.1236 121.286 65.4529C121.067 64.7821 120.864 64.0856 120.678 63.3632H121.236C121.033 64.1029 120.822 64.821 120.602 65.5176C120.382 66.2141 120.13 66.9233 119.843 67.6457L117.614 73.5018C117.361 74.1899 117.302 74.7399 117.437 75.1528C117.572 75.5656 117.943 75.8067 118.551 75.8752C118.618 76.0818 118.665 76.3182 118.691 76.5846C118.716 76.8515 118.729 77.1393 118.729 77.4488C118.543 77.4315 118.294 77.4184 117.982 77.4099C117.669 77.4011 117.34 77.3926 116.994 77.3841C116.648 77.3755 116.331 77.3712 116.044 77.3712C115.622 77.3712 115.2 77.3755 114.778 77.3841C114.356 77.3926 114.019 77.4142 113.766 77.4488C113.766 77.1566 113.782 76.8811 113.816 76.6233C113.85 76.3653 113.909 76.1162 113.994 75.8752C114.28 75.8236 114.525 75.7164 114.728 75.5529C114.93 75.3897 115.129 75.1186 115.323 74.7401C115.517 74.362 115.749 73.846 116.019 73.1924L121.311 59.9065C121.581 59.838 121.821 59.7993 122.033 59.7905C122.244 59.782 122.501 59.7773 122.805 59.7773ZM124.147 70.9996L124.527 72.4185C123.395 72.4185 122.21 72.4358 120.969 72.4701C119.728 72.5048 118.534 72.5646 117.386 72.6507L117.791 70.9996H124.147Z" fill="#E8E3DE"/>
</svg>
