<svg width="142" height="150" viewBox="0 0 142 150" fill="none" xmlns="http://www.w3.org/2000/svg">
<path d="M58.0384 81.6645C58.2559 81.7741 58.5841 81.8795 58.8016 81.8795C59.4581 81.8795 60.1104 81.5549 60.4387 80.9097C60.8736 80.0453 60.5496 78.9658 59.5647 78.5357C58.5841 77.996 57.9276 77.0262 57.9276 75.837V57.7008C57.9276 55.9719 59.3473 54.572 60.9845 54.572H79.3218C81.0698 54.572 82.4852 55.9762 82.4852 57.7008V75.837C82.4852 76.3768 82.3744 76.8069 82.0504 77.2412C81.5046 78.1056 81.8329 79.1851 82.5961 79.6152C83.4701 80.1549 84.5615 79.8302 84.9964 79.0755C85.5421 78.1056 85.8704 77.0262 85.8704 75.837V57.7008C85.8704 54.0323 82.9244 51.1143 79.2108 51.1143L61.0951 51.1185C57.3859 51.1185 54.4355 54.0322 54.4355 57.705V75.8412C54.4355 78.3207 55.8555 80.585 58.0384 81.6645Z" fill="#40403E"/>
<path d="M115.445 51.1192H97.1117C93.4025 51.1192 90.4521 54.033 90.4521 57.7058V75.842C90.4521 79.5105 93.3982 82.4285 97.1117 82.4285H115.449C119.158 82.4285 122.109 79.5148 122.109 75.842L122.104 57.7014C122.104 54.033 119.158 51.1192 115.445 51.1192ZM118.502 75.837C118.502 77.5659 117.082 78.8604 115.445 78.8604H97.1117C95.3636 78.8604 94.0548 77.4563 94.0548 75.837V57.7008C94.0548 55.9719 95.4745 54.6774 97.1117 54.6774H115.449C117.197 54.6774 118.506 56.0816 118.506 57.7008L118.502 75.837Z" fill="#40403E"/>
<path d="M43.4095 51.1192H25.0765C21.3674 51.1192 18.417 54.033 18.417 57.7058V75.842C18.417 79.5105 21.363 82.4285 25.0765 82.4285H43.4139C47.123 82.4285 50.0734 79.5148 50.0734 75.842L50.0691 57.7014C50.0691 54.033 47.123 51.1192 43.4095 51.1192ZM46.5772 75.837C46.5772 77.5659 45.1574 78.8604 43.5203 78.8604H25.0771C23.329 78.8604 22.0202 77.4563 22.0202 75.837V57.7008C22.0202 55.9719 23.4399 54.6774 25.0771 54.6774H43.4144C45.1624 54.6774 46.4713 56.0816 46.4713 57.7008L46.467 75.837H46.5772Z" fill="#40403E"/>
<path d="M93.9441 87.0619C92.9635 87.0619 92.0896 87.3866 91.2155 87.8167C90.3415 85.8728 88.376 84.4686 85.9757 84.4686C84.8843 84.4686 83.9038 84.7933 83.1363 85.2234C82.1557 83.4945 80.2968 82.2 78.1139 82.2C77.3507 82.2 76.5876 82.3096 75.931 82.6301V71.8354C75.931 68.7066 73.3133 66.1133 70.1455 66.1133C66.982 66.1133 64.36 68.7023 64.36 71.8354V97.5279L61.0856 94.5045C59.9942 93.425 58.4679 92.995 56.9373 92.995C55.411 93.1046 53.9913 93.7498 53.0064 94.9389C51.2583 96.9882 51.2583 99.9062 53.0064 101.955L64.4665 115.774C67.6428 119.666 72.1151 121.715 76.8096 121.715H85.7586C93.5095 121.715 99.7301 115.563 99.7301 107.897V92.7842C99.7301 89.6554 97.1119 87.0619 93.9441 87.0619ZM96.127 107.897C96.127 113.509 91.433 118.152 85.7583 118.152H76.8094C73.1002 118.152 69.6041 116.533 67.3147 113.724L55.8546 99.9102C55.198 99.1554 55.198 98.076 55.8546 97.3212C56.1829 96.8911 56.7286 96.6718 57.2743 96.5664C57.82 96.5664 58.3658 96.676 58.8006 97.1062L65.1318 102.934C65.6776 103.364 66.4407 103.583 67.0973 103.258C67.7539 102.934 68.1887 102.394 68.1887 101.639V71.9492C68.1887 70.7601 69.1693 69.7903 70.3716 69.7903C71.574 69.7903 72.5545 70.7601 72.5545 71.9492V91.4898C72.5545 92.4597 73.3177 93.2187 74.3026 93.2187C75.2832 93.2187 76.0506 92.4639 76.0506 91.4898V87.9267C76.0506 86.7376 77.0312 85.7678 78.2335 85.7678C79.4358 85.7678 80.4164 86.7376 80.4164 87.9267V92.9994C80.4164 93.9692 81.1795 94.7283 82.1644 94.7283C83.145 94.7283 83.9125 93.9735 83.9125 92.9994V90.0857C83.9125 88.8965 84.8931 87.9267 86.0954 87.9267C87.2977 87.9267 88.2783 88.8966 88.2783 90.0857V94.5132C88.2783 95.4831 89.0414 96.2421 90.0263 96.2421C91.0069 96.2421 91.7744 95.4873 91.7744 94.5132V92.679C91.7744 91.4898 92.755 90.52 93.9572 90.52C95.1596 90.52 96.1401 91.4899 96.1401 92.679L96.127 107.897Z" fill="#40403E"/>
<path d="M70.2607 43.4532C71.2413 43.4532 72.0088 42.6985 72.0088 41.7244V35.0325C72.0088 33.953 71.2414 33.1982 70.2607 33.1982C69.2801 33.1982 68.5127 33.953 68.5127 34.9271V41.619C68.5127 42.6985 69.2801 43.4532 70.2607 43.4532Z" fill="#40403E"/>
<path d="M60.4385 44.9627C60.7667 45.5024 61.3125 45.7175 61.8582 45.7175C62.1865 45.7175 62.5148 45.6079 62.8388 45.3928C63.602 44.8531 63.8194 43.7736 63.2737 42.9092L59.4536 37.4021C58.9079 36.6473 57.8165 36.4323 56.9424 36.972C56.1793 37.5117 55.9618 38.5912 56.5076 39.4557L60.4385 44.9627Z" fill="#40403E"/>
<path d="M78.6638 45.7224C79.2095 45.7224 79.7552 45.5073 80.0835 44.9676L83.9036 39.4605C84.4493 38.7058 84.2318 37.5166 83.4687 36.9769C82.5947 36.4372 81.5032 36.6522 80.9575 37.407L77.1374 42.914C76.5917 43.6688 76.8092 44.858 77.5723 45.3977C77.9006 45.6128 78.3355 45.7224 78.6638 45.7224Z" fill="#40403E"/>
<path d="M70.9434 1.00586C109.583 1.00586 140.888 31.983 140.888 70.1719C140.888 108.361 109.583 139.338 70.9434 139.338C32.3043 139.338 1.0001 108.361 1 70.1719C1 31.9831 32.3043 1.00606 70.9434 1.00586Z" stroke="#40403E" stroke-width="2"/>
</svg>
