<svg width="143" height="153" viewBox="0 0 143 153" fill="none" xmlns="http://www.w3.org/2000/svg">
<path d="M71.8213 1C110.398 1 141.766 34.0778 141.766 75C141.766 115.922 110.398 149 71.8213 149C33.2443 149 1.87793 115.922 1.87793 75C1.87793 34.0779 33.2443 1.00021 71.8213 1Z" stroke="#40403E" stroke-width="2"/>
<path fill-rule="evenodd" clip-rule="evenodd" d="M50.3735 107.722C49.4224 107.078 48.5517 106.308 47.8093 105.509C46.8382 104.462 46.0798 103.344 45.6504 102.374C45.213 102.154 44.8197 101.957 44.4545 101.775L44.0091 101.559C43.5356 102.029 42.9457 102.366 42.3077 102.552C41.3527 102.829 40.2812 102.76 39.3303 102.283L28.9569 97.0671C28.0059 96.5895 27.3478 95.7897 27.0588 94.8838C26.7659 93.9816 26.8381 92.9695 27.3437 92.0713L35.6141 77.3944C36.1197 76.4961 36.9664 75.8744 37.9254 75.6015C38.8845 75.3248 39.9559 75.393 40.9029 75.8668L40.9912 75.9161L51.2762 81.0901C52.2272 81.5677 52.8853 82.3675 53.1743 83.2734C53.387 83.933 53.407 84.6494 53.2024 85.3393L55.5258 86.4536L63.3347 83.914C63.5153 83.8571 63.6999 83.8382 63.8804 83.8571C65.0241 83.9026 66.1878 84.0656 67.3715 84.3461C68.3908 84.5849 69.4341 84.9184 70.5015 85.3392C71.296 84.9222 72.0344 84.5886 72.7085 84.3346C73.5953 84.0011 74.3818 83.8115 75.06 83.7623L75.1282 83.7585C75.979 83.7092 76.7815 83.7471 77.536 83.8608C78.3265 83.9859 79.0568 84.1944 79.7269 84.4938C81.6491 85.3353 83.4428 85.6386 85.1482 85.5628C86.5085 85.5022 87.8367 85.1989 89.1409 84.7365C89.0606 84.2627 89.0847 83.7813 89.197 83.3189C89.4258 82.4016 90.0277 81.5638 90.9426 81.0256L100.91 75.1958C101.825 74.6613 102.889 74.5249 103.856 74.7409C104.827 74.957 105.718 75.5256 106.283 76.3936L115.465 90.4106L115.501 90.4598L115.497 90.4636L115.521 90.4977C116.087 91.362 116.231 92.3627 116.002 93.28C115.782 94.1632 115.22 94.9706 114.365 95.505L114.305 95.5581L114.301 95.5543C110.978 97.5178 107.632 99.4547 104.297 101.403C103.382 101.938 102.323 102.074 101.352 101.858C101.047 101.79 100.75 101.687 100.465 101.551L92.9569 107.809L94.7627 109.337C94.8549 109.416 94.9352 109.507 94.9954 109.602C95.6615 110.572 95.8381 111.546 95.6655 112.422C95.5251 113.131 95.1599 113.76 94.6383 114.26C94.1407 114.738 93.4946 115.094 92.7723 115.288C91.7771 115.553 90.6295 115.507 89.5099 115.034C89.3333 115.598 89.0244 116.099 88.6191 116.512C88.1977 116.94 87.6721 117.285 87.0782 117.52C86.1713 117.88 85.0998 117.99 84.0284 117.774C83.8759 118.138 83.6672 118.479 83.4144 118.79C83.0653 119.218 82.6279 119.586 82.1343 119.878C81.6488 120.166 81.0991 120.378 80.5292 120.492C79.6625 120.666 78.7435 120.625 77.8768 120.302C77.8126 120.416 77.7444 120.522 77.6682 120.628C77.2348 121.227 76.6007 121.678 75.8584 121.948C75.1642 122.198 74.3657 122.292 73.547 122.202C72.5118 122.084 71.4323 121.663 70.4893 120.879C70.409 120.905 70.3247 120.928 70.2445 120.951C69.2614 121.205 68.1819 121.121 67.2229 120.636C67.1546 120.606 67.0864 120.572 67.0222 120.53C66.1113 120.007 65.4853 119.192 65.2085 118.282C64.2053 118.532 63.1017 118.426 62.1347 117.907C61.1676 117.388 60.5055 116.546 60.2206 115.606C59.2535 115.845 58.19 115.758 57.2471 115.284C57.1789 115.253 57.1107 115.219 57.0465 115.178C56.1396 114.658 55.5176 113.851 55.2367 112.949L55.2327 112.93C54.2656 113.169 53.2022 113.078 52.2593 112.604C52.1911 112.574 52.1228 112.539 52.0586 112.498C51.1317 111.967 50.4977 111.129 50.2289 110.201C49.9961 109.401 50.0324 108.53 50.3735 107.722ZM71.5003 49.6437C74.5541 49.6437 77.3229 50.8149 79.3253 52.7026C81.3276 54.594 82.5676 57.2094 82.5676 60.0941C82.5676 62.9787 81.3276 65.5941 79.3253 67.4856C77.3229 69.377 74.5541 70.5482 71.5003 70.5482C68.4466 70.5482 65.6778 69.377 63.6754 67.4856C61.673 65.5941 60.4331 62.9787 60.4331 60.0941C60.4331 57.2094 61.673 54.594 63.6754 52.7026C65.6778 50.8111 68.4426 49.6437 71.5003 49.6437ZM77.5596 54.3704C76.0107 52.9073 73.8678 52.0014 71.5003 52.0014C69.1329 52.0014 66.994 52.9073 65.4411 54.3704C63.8922 55.8336 62.9331 57.8577 62.9331 60.0941C62.9331 62.3305 63.8921 64.3508 65.4411 65.8177C66.99 67.2808 69.1329 68.1868 71.5003 68.1868C73.8678 68.1868 76.0067 67.2808 77.5596 65.8177C79.1085 64.3546 80.0676 62.3304 80.0676 60.0941C80.0676 57.8576 79.1085 55.8336 77.5596 54.3704ZM55.2688 47.7673C55.4695 48.1123 55.6781 48.4572 55.8868 48.8022C56.1556 49.2456 56.4285 49.6967 56.593 49.9886L56.6251 50.0531C56.7415 50.2502 56.8659 50.4586 56.9702 50.633C57.3193 51.2054 57.4839 51.4821 57.4919 51.9786C57.4999 52.4373 57.3595 52.6875 57.0987 53.1727C57.0023 53.3508 56.878 53.5858 56.6773 54.0028C56.3924 54.6093 56.264 55.0187 56.1757 55.3106C55.8547 56.3416 55.7544 56.6562 54.5344 56.9708C54.2014 57.0579 53.8523 57.1413 53.451 57.2399C52.5962 57.4484 51.5128 57.7137 50.8146 57.907L50.8266 62.2964C51.3764 62.448 52.1469 62.6262 52.8571 62.7929C53.6316 62.9711 54.3378 63.1379 54.7712 63.2819H54.7752C55.7584 63.6041 55.9349 64.1348 56.2439 65.0634C56.3443 65.3629 56.4646 65.7381 56.6773 66.1854C56.8739 66.6023 56.9983 66.8373 57.0946 67.0117H57.0987C57.3675 67.5083 57.508 67.766 57.4919 68.2474C57.4759 68.7439 57.2993 69.0244 56.9301 69.6119C56.7977 69.8166 56.6412 70.0668 56.5248 70.2639C56.3764 70.5103 56.2479 70.7149 56.0995 70.95C55.8146 71.401 55.4654 71.9506 55.2247 72.3752L58.4871 75.4645C58.8362 75.2826 59.2495 75.0513 59.5706 74.8694C59.695 74.8012 59.8194 74.7254 59.9438 74.6609C60.4694 74.3691 60.8065 74.1757 61.0714 74.0203C61.8138 73.5844 62.1749 73.3759 62.7127 73.3267C63.3066 73.2736 63.6196 73.4252 64.2255 73.7209C64.4864 73.846 64.8315 74.0165 65.329 74.2174C65.4494 74.2667 65.642 74.3198 65.8467 74.3804H65.8507C66.4887 74.5662 67.223 74.7746 67.6725 75.1954L67.7567 75.2788C68.154 75.7261 68.4509 76.8936 68.7599 78.0951C68.9004 78.6485 69.0448 79.2132 69.1692 79.634L73.8321 79.6226C73.9605 79.1981 74.105 78.6295 74.2454 78.0685H74.2414C74.5384 76.8935 74.8273 75.7563 75.2286 75.29L75.3209 75.1915C75.7703 74.7707 76.4966 74.5585 77.1466 74.3689C77.3834 74.3007 77.6041 74.2363 77.7285 74.187C78.1739 74.0012 78.4709 73.861 78.6996 73.7511C79.3497 73.4365 79.6907 73.2735 80.3127 73.3341C80.8745 73.391 81.2758 73.6222 82.1024 74.1074C82.3191 74.2363 82.588 74.3917 83.0936 74.676C83.1979 74.7366 83.3103 74.7935 83.4066 74.8541C83.7316 75.0361 84.153 75.2748 84.5061 75.4644L87.7685 72.3902C87.5478 72.0112 87.2468 71.5374 86.9739 71.1129C86.7733 70.7982 86.5927 70.514 86.4121 70.2031C86.2878 69.9871 86.1353 69.7407 86.0149 69.5436C85.6658 68.975 85.4972 68.7059 85.4932 68.2131C85.4852 67.762 85.6216 67.5157 85.8785 67.0532C85.9788 66.8713 86.1152 66.6249 86.3199 66.1928C86.6008 65.5901 86.7292 65.1807 86.8215 64.8927C87.1425 63.8579 87.2428 63.5395 88.4707 63.221C88.7356 63.1528 89.1449 63.0542 89.6104 62.9405C90.4491 62.7358 91.4964 62.4857 92.1786 62.2961L92.1665 57.9105C91.6489 57.7703 90.9386 57.5997 90.3368 57.4557C89.8954 57.3496 89.5061 57.2548 89.2693 57.1941L88.9363 57.1108C88.6795 57.0501 88.4106 56.9857 88.21 56.9212C87.2509 56.6104 87.1827 56.4019 86.9459 55.6514L86.8937 55.477C86.4684 54.1769 86.1112 53.5705 85.8945 53.2027C85.6819 52.8426 85.5494 52.6189 85.5053 52.2361C85.4291 51.6107 85.6417 51.2695 86.1995 50.3598C86.7212 49.5069 87.2067 48.6427 87.7043 47.7784L84.506 44.7498C83.9483 45.0417 83.1537 45.4776 82.6361 45.7619C82.303 45.9325 81.966 46.1296 81.6369 46.3115C80.9628 46.6906 80.6458 46.8649 80.092 46.8763C79.5904 46.8839 79.3055 46.7474 78.7677 46.4859C78.5671 46.3911 78.3103 46.266 77.9331 46.103C77.2951 45.8339 76.8576 45.7126 76.5486 45.6254C75.4652 45.326 75.1321 45.235 74.7951 44.0713L74.5262 43.1047C74.3055 42.2973 74.0166 41.2435 73.8159 40.584H69.1571C69.0327 41.0047 68.8882 41.5733 68.7478 42.1267C68.4468 43.3094 68.1579 44.4578 67.7606 44.9127L67.6763 44.9999C67.263 45.3865 66.4123 45.6594 65.678 45.8945C65.3851 45.9892 65.1162 46.0726 64.9838 46.1295C64.6307 46.2773 64.3096 46.4327 64.0769 46.5464C63.7478 46.7056 63.5472 46.8004 63.2583 46.8572C62.6162 46.9823 62.3755 46.8535 61.7856 46.5275C61.6532 46.4479 61.5127 46.3797 61.3763 46.3038C60.662 45.9134 59.2897 45.1553 58.4831 44.7459L55.2688 47.7673ZM53.7199 49.962C53.9045 50.2691 54.0931 50.5799 54.3981 51.1106L54.4382 51.175C54.6067 51.4669 54.7191 51.6488 54.8074 51.8004C54.9438 52.0241 55.008 51.88 55.008 52.0051C55.008 52.1264 54.9639 51.9596 54.8876 52.1037C54.7512 52.3501 54.5746 52.6798 54.3981 53.0513C54.057 53.7753 53.9005 54.2832 53.7881 54.6433C53.7681 54.7115 54.0088 54.666 53.8844 54.7002L52.8331 54.9579C51.4447 55.2953 49.5145 55.7691 49.0009 56.0231C48.5394 56.2505 48.2906 56.7092 48.3307 57.1678L48.3468 63.1076C48.3468 63.5662 48.6237 63.9642 49.029 64.1575C49.655 64.4645 51.0393 64.7867 52.2632 65.071C52.9976 65.2416 53.6757 65.4008 53.9566 65.4918C54.1572 65.5562 53.7961 65.5448 53.8643 65.7533C53.9847 66.1134 54.1332 66.5645 54.394 67.1217C54.5665 67.4894 54.7431 67.8154 54.8795 68.0693L54.8755 68.0731L54.9036 68.1148C54.9277 68.1565 54.9558 68.1944 54.9839 68.2323C54.9558 68.2513 54.8956 68.2399 54.7953 68.3991C54.699 68.5507 54.5786 68.7441 54.3619 69.1041L53.9686 69.7334C53.443 70.5635 52.7247 71.6968 52.5441 72.3148C52.4197 72.7355 52.5561 73.1676 52.8611 73.4557L57.3354 77.6935C57.6644 78.0081 58.138 78.1067 58.5593 77.9968C59.1412 77.8376 60.1644 77.2614 60.8426 76.8824L61.2038 76.6815C61.6492 76.4351 62.0585 76.1963 62.3795 76.0068C62.7928 75.768 62.9052 75.6581 62.9493 75.6543C63.0817 75.6429 62.9052 75.7111 63.0857 75.7983C63.3787 75.9424 63.7719 76.1357 64.3578 76.3669C64.5625 76.4503 64.8353 76.5299 65.1242 76.6133C65.4132 76.6967 65.7382 76.7914 65.8706 76.8369C65.9388 77.0568 66.1395 77.8338 66.3401 78.6299C66.617 79.714 66.8979 80.8283 67.2109 81.3628C67.4436 81.7646 67.885 81.9882 68.3385 81.9769L74.6948 81.9617C75.1643 81.9617 75.5696 81.7191 75.7822 81.359C76.1033 80.8132 76.3882 79.695 76.6651 78.6034H76.6691C76.8657 77.8263 77.0583 77.0645 77.1305 76.8332C77.267 76.7877 77.584 76.693 77.8769 76.6096C78.1859 76.5224 78.4748 76.4352 78.7196 76.3329C79.1811 76.1433 79.5422 75.9652 79.8271 75.8287C80.0438 75.7226 79.9515 75.6506 80.0558 75.6582L80.7942 76.0903C81.1192 76.2798 81.5125 76.511 81.8255 76.6854L82.1224 76.856C82.7925 77.2388 83.8158 77.8225 84.4378 77.9893C84.9073 78.1144 85.3848 77.9666 85.6938 77.652L90.132 73.4635C90.465 73.1527 90.5693 72.7054 90.453 72.3074C90.2684 71.6933 89.6344 70.7003 89.1087 69.8815C88.88 69.5251 88.6713 69.1954 88.595 69.0627C88.3904 68.7064 88.266 68.5093 88.1697 68.3501C88.0373 68.134 87.9811 68.3046 87.9771 68.1719C87.9731 68.0355 88.0132 68.244 88.0814 68.1265C88.2178 67.8763 88.4065 67.5389 88.5991 67.1258C88.9361 66.4056 89.0926 65.9015 89.205 65.5414C89.2291 65.4656 89.0044 65.5035 89.1207 65.4732C89.3816 65.4049 89.7748 65.3102 90.2242 65.2002C91.5926 64.8705 93.4625 64.4156 93.9923 64.1541C94.4457 63.9342 94.6905 63.4907 94.6624 63.0397L94.6463 57.0697C94.6463 56.611 94.3695 56.213 93.9601 56.0198C93.3863 55.7393 92.01 55.4095 90.9385 55.1555C90.5453 55.0608 90.1962 54.9774 89.9514 54.9091L89.2612 54.7424C88.7596 53.2148 88.3262 52.4832 88.0693 52.0436C88.0091 51.9412 87.9931 52.0474 87.9811 51.964C87.965 51.8237 88.0974 51.945 88.3542 51.5205L88.6231 51.0846L90.3366 48.1128C90.6055 47.6466 90.5051 47.0818 90.1279 46.7217L85.6536 42.4877C85.2845 42.1389 84.7387 42.0518 84.2853 42.2337C83.6312 42.4687 82.1987 43.2609 81.3841 43.712C81.059 43.9053 80.7099 44.0834 80.3769 44.2692C80.0839 44.436 80.1762 44.508 80.0599 44.508C79.9475 44.5118 80.0799 44.4625 79.9034 44.3753C79.6626 44.2578 79.3496 44.11 78.9483 43.9394C78.1618 43.6058 77.6201 43.458 77.2429 43.3519C77.2027 43.3405 77.2107 43.4315 77.2107 43.458L77.2067 43.4656L76.9379 42.499C76.5807 41.1912 76.0591 39.2922 75.7822 38.8184C75.5535 38.4318 75.1321 38.2157 74.6947 38.2157L74.6987 38.2119H68.3023C67.7807 38.2119 67.3312 38.5189 67.1426 38.9473C66.8497 39.5234 66.5889 40.5583 66.3321 41.5665C66.1354 42.3473 65.9388 43.1054 65.8666 43.3366L64.8875 43.6513C64.5343 43.765 64.2093 43.8673 63.9726 43.9697C63.4469 44.1895 63.162 44.3297 62.9493 44.4321L62.6363 44.2577C61.585 43.6778 59.1893 42.3549 58.5512 42.1881C58.1058 42.0706 57.6484 42.1995 57.3434 42.4876L52.8611 46.714C52.4518 47.0969 52.3876 47.6844 52.6604 48.1354C53.0336 48.8253 53.3748 49.3897 53.7199 49.962ZM77.2064 43.4689L77.2104 43.4613C77.2104 43.4689 77.2104 43.4727 77.2064 43.4689ZM91.7444 84.7776C91.7685 84.8079 91.7885 84.842 91.8046 84.8761L101.038 98.9688C101.239 99.2796 101.56 99.4805 101.913 99.5601C102.27 99.6397 102.659 99.5942 102.984 99.4009L112.916 93.5938L112.912 93.5901L113.016 93.5332C113.309 93.3399 113.502 93.0556 113.578 92.7448C113.658 92.4188 113.614 92.0701 113.43 91.7668H113.426L113.353 91.6455L104.168 77.6247C103.967 77.3138 103.642 77.1129 103.289 77.0333C102.932 76.9537 102.547 76.9992 102.218 77.1925L92.2461 83.0223C91.921 83.2118 91.7044 83.5151 91.6241 83.8486C91.5559 84.1595 91.5879 84.4895 91.7444 84.7776ZM90.1915 86.8813C88.6104 87.4575 86.9772 87.8365 85.2678 87.9123C83.173 88.0071 80.9941 87.6432 78.6868 86.6312L78.6788 86.6274C78.2093 86.4189 77.6957 86.2673 77.1419 86.1801C76.5761 86.0929 75.9582 86.0664 75.288 86.1043L75.2559 86.1081C74.8145 86.1384 74.2728 86.2749 73.6347 86.5137C72.9486 86.7714 72.146 87.1505 71.2391 87.6508L71.207 87.6698L71.1669 87.6925L58.2541 94.2805C57.5759 94.8301 57.295 95.501 57.3312 96.1226C57.3512 96.46 57.4596 96.786 57.6442 97.0702C57.8287 97.3507 58.0936 97.5971 58.4226 97.7677C59.1128 98.1278 60.104 98.1847 61.3078 97.6995L72.3716 92.3283C72.8049 92.1198 73.3467 92.1615 73.7399 92.4761L91.0628 106.254L98.7071 99.8826L90.1915 86.8813ZM42.4757 99.5641L42.4877 99.5337C42.5038 99.5034 42.5198 99.4731 42.5399 99.4466L50.4651 85.384L50.4811 85.3574C50.4932 85.3309 50.5092 85.3081 50.5253 85.2816L50.6938 84.9822C50.8784 84.6562 50.9025 84.2885 50.7981 83.9587C50.6938 83.629 50.453 83.3409 50.1079 83.1665L39.8229 77.9963L39.7306 77.9546C39.3815 77.7802 38.9922 77.7537 38.6471 77.856C38.298 77.9546 37.993 78.182 37.8084 78.508L29.5381 93.1771C29.3535 93.5031 29.3294 93.8707 29.4338 94.2005C29.5381 94.5303 29.7789 94.8184 30.124 94.9928L40.4974 100.208C40.8425 100.383 41.2317 100.406 41.5808 100.307C41.9299 100.208 42.2349 99.9811 42.4195 99.6551L42.4757 99.5641ZM45.3007 99.5451L45.5896 99.6854C46.1113 99.9393 46.653 100.212 47.2389 100.512C47.5118 100.652 47.7325 100.887 47.8328 101.186C48.0976 101.963 48.7678 102.979 49.6787 103.961C50.2405 104.568 50.8866 105.151 51.5768 105.648L51.7814 105.311C52.3513 104.359 53.226 103.753 54.2172 103.499C55.1763 103.248 56.2316 103.339 57.2108 103.772C57.3071 103.806 57.4034 103.851 57.4917 103.908C58.1377 104.279 58.6393 104.795 58.9764 105.386C59.3536 105.193 59.7589 105.057 60.1803 104.981C61.1032 104.81 62.1064 104.935 63.0093 105.36C63.8399 105.75 64.4458 106.395 64.803 107.137C64.9956 107.054 65.1962 106.99 65.4009 106.937C66.4081 106.675 67.5236 106.774 68.4987 107.293L68.5188 107.304C69.5019 107.831 70.1681 108.695 70.4489 109.654C70.5091 109.867 70.5533 110.083 70.5773 110.299C71.3759 110.249 72.2146 110.409 72.9609 110.761C73.8197 111.167 74.4537 111.849 74.8188 112.63V112.634C75.184 113.418 75.2843 114.324 75.0636 115.158L75.0516 115.204L77.6238 117.292C77.7442 117.36 77.8485 117.448 77.9368 117.55L78.3381 117.876C78.8396 118.229 79.4496 118.308 80.0154 118.191C80.3003 118.134 80.5732 118.028 80.822 117.884H80.826C81.0667 117.743 81.2794 117.561 81.448 117.357C81.6687 117.084 81.8091 116.758 81.8211 116.401L75.6254 111.853C75.0837 111.455 74.9834 110.712 75.4047 110.2C75.8261 109.689 76.6126 109.594 77.1543 109.992L84.6542 115.499C85.1799 115.587 85.6895 115.53 86.1149 115.359C86.3757 115.257 86.6085 115.105 86.785 114.923C86.9496 114.753 87.0739 114.552 87.1341 114.332C87.2064 114.063 87.2023 113.744 87.086 113.388L78.4746 107.156C77.9288 106.762 77.8245 106.023 78.2418 105.508C78.6591 104.992 79.4417 104.894 79.9874 105.288L90.4368 112.846C91.0186 113.119 91.6085 113.157 92.1021 113.024C92.4111 112.941 92.6759 112.797 92.8766 112.603C93.0531 112.433 93.1775 112.228 93.2217 112.001C93.2778 111.709 93.2136 111.36 92.9769 110.977L90.2883 108.699L90.2482 108.665L72.7845 94.7732L62.4635 99.7843C62.4114 99.8071 62.3592 99.8298 62.307 99.8488C60.3047 100.664 58.535 100.508 57.2188 99.8184C56.5086 99.447 55.9388 98.9201 55.5295 98.2985C55.1242 97.6806 54.8834 96.9718 54.8473 96.2364C54.7751 94.8832 55.365 93.4542 56.8015 92.3701C56.8617 92.3246 56.9219 92.2867 56.9861 92.2526V92.2488L67.5917 86.836C67.3188 86.7564 67.0499 86.6881 66.7771 86.6237C65.798 86.3925 64.8509 86.2522 63.936 86.2067L55.8463 88.8373C55.5373 88.9359 55.1922 88.9207 54.8792 88.7729L52.1184 87.45L45.3007 99.5451ZM69.759 113.1L69.7269 113.157L69.6627 113.263L69.6306 113.32L67.7526 116.444V116.447L67.7486 116.451C67.5319 116.819 67.4878 117.236 67.6002 117.615C67.7085 117.99 67.9734 118.331 68.3586 118.54L68.3706 118.543C68.7558 118.748 69.1973 118.786 69.5985 118.684C69.6667 118.665 69.7309 118.646 69.7951 118.619C69.8393 118.574 69.8834 118.532 69.9356 118.494C70.052 118.407 70.1764 118.339 70.3088 118.297C70.4091 118.202 70.5014 118.092 70.5776 117.967L72.3994 114.935L72.4275 114.886L72.6723 114.476C72.7204 114.181 72.6723 113.862 72.5398 113.574C72.3914 113.267 72.1586 113.002 71.8537 112.858C71.4765 112.68 71.0471 112.607 70.6458 112.653C70.3529 112.683 70.076 112.778 69.8633 112.937L69.759 113.1ZM65.5456 115.34C65.5696 115.295 65.5977 115.253 65.6258 115.208V115.204L67.7807 111.622L67.8208 111.584L67.861 111.52C67.8851 111.47 67.9131 111.421 67.9452 111.376C68.1338 111.023 68.1659 110.629 68.0616 110.269C67.9573 109.912 67.7165 109.59 67.3674 109.382C67.3233 109.363 67.2791 109.34 67.239 109.314C66.8658 109.135 66.4485 109.105 66.0673 109.204C65.67 109.306 65.3089 109.556 65.0882 109.92L64.8113 110.382L64.6508 110.648L62.7688 113.775L62.7608 113.79C62.5481 114.154 62.512 114.567 62.6203 114.942C62.7287 115.318 62.9935 115.659 63.3828 115.867C63.772 116.076 64.2174 116.114 64.6187 116.011C64.9798 115.905 65.3208 115.678 65.5456 115.34ZM73.8239 117.308L72.7325 119.123C72.6723 119.222 72.6121 119.313 72.5479 119.404C72.9692 119.662 73.4146 119.806 73.84 119.855C74.2533 119.904 74.6425 119.859 74.9716 119.741C75.2485 119.643 75.4772 119.487 75.6137 119.298C75.6979 119.184 75.7501 119.044 75.7702 118.885L73.8239 117.308ZM58.985 109.067C58.9609 109.12 58.9288 109.173 58.8927 109.222L58.8887 109.226L57.8132 111.015V111.019C57.7891 111.065 57.7651 111.106 57.737 111.152L57.733 111.156C57.5444 111.508 57.5123 111.902 57.6166 112.259L57.6286 112.3C57.737 112.642 57.9737 112.949 58.3148 113.153C58.359 113.172 58.4031 113.195 58.4432 113.222C58.8164 113.4 59.2337 113.43 59.6149 113.331C59.9921 113.233 60.3332 113.009 60.5539 112.676C60.578 112.626 60.6101 112.577 60.6422 112.535L60.6703 112.486L60.7024 112.437L60.8709 112.141L60.9632 111.99L60.9913 111.94L62.5082 109.42L62.5644 109.321C62.7008 108.969 62.6968 108.582 62.5684 108.237C62.448 107.911 62.2112 107.627 61.8822 107.471C61.4809 107.282 61.0395 107.229 60.6343 107.301C60.2932 107.365 59.9842 107.524 59.7555 107.778L58.973 109.078L58.985 109.067ZM53.4032 110.511C53.7884 110.712 54.2258 110.75 54.6271 110.648C55.0243 110.545 55.3855 110.295 55.6022 109.931L55.6062 109.924L56.7739 107.979L56.7819 107.96C56.9906 107.6 57.0267 107.187 56.9184 106.816C56.81 106.44 56.5492 106.103 56.164 105.894C55.7225 105.701 55.2651 105.656 54.8678 105.758C54.5027 105.853 54.1696 106.088 53.9449 106.467C53.5557 107.115 53.1704 107.775 52.7732 108.415C52.5565 108.779 52.5124 109.2 52.6247 109.579C52.7331 109.954 52.9979 110.295 53.3831 110.5L53.4032 110.511Z" fill="#40403E"/>
</svg>
