<svg width="142" height="153" viewBox="0 0 142 153" fill="none" xmlns="http://www.w3.org/2000/svg">
<path d="M70.9551 1C109.532 1 140.899 34.0778 140.899 75C140.899 115.922 109.532 149 70.9551 149C32.3781 149 1.01172 115.922 1.01172 75C1.01172 34.0779 32.3781 1.00021 70.9551 1Z" stroke="#40403E" stroke-width="2"/>
<path d="M83.3478 54.2706C90.9122 56.697 97.4022 61.2989 101.964 67.274C106.405 73.0911 109.017 80.2131 109.017 87.8934C109.017 97.7129 104.763 106.601 97.8829 113.033C91.0074 119.462 81.4983 123.444 70.9963 123.444C60.499 123.444 50.9939 119.466 44.1098 113.029C37.2343 106.6 32.9756 97.709 32.9756 87.8892C32.9756 80.2087 35.5924 73.0876 40.0287 67.2698C44.5908 61.2947 51.0806 56.6931 58.6448 54.2664C59.455 54.0072 60.1135 53.5454 60.5598 52.958C61.0104 52.3706 61.266 51.6334 61.266 50.8353V45.2895C59.6673 45.2814 58.216 44.6819 57.1372 43.7178L57.0288 43.6287C55.9328 42.6038 55.2525 41.19 55.2525 39.6344C55.2525 38.087 55.9327 36.6732 57.0245 35.6442C58.1293 34.6112 59.6413 33.9752 61.3006 33.9752H80.6709C82.3259 33.9752 83.8379 34.6112 84.934 35.6321C86.0388 36.6651 86.719 38.0789 86.719 39.6304C86.719 41.1859 86.0388 42.6038 84.9427 43.6287C83.8509 44.6414 82.3519 45.2815 80.7099 45.2896V50.8354C80.7099 51.6334 80.9612 52.3707 81.4161 52.9581C81.8667 53.5455 82.5252 54.0113 83.3311 54.2665L83.3478 54.2706ZM91.4581 36.6575C90.5396 36.6575 89.7944 35.9608 89.7944 35.102C89.7944 34.2432 90.5396 33.5464 91.4581 33.5464H96.7999V28.5516C96.7999 27.6929 97.5451 26.9961 98.4635 26.9961C99.382 26.9961 100.127 27.6929 100.127 28.5516V33.5464H105.469C106.387 33.5464 107.133 34.2432 107.133 35.102C107.133 35.9608 106.387 36.6575 105.469 36.6575H100.127V41.6523C100.127 42.5111 99.382 43.2079 98.4635 43.2079C97.5451 43.2079 96.7999 42.5111 96.7999 41.6523V36.6575H91.4581ZM41.7131 48.3522C40.7947 48.3522 40.0495 47.6554 40.0495 46.7967C40.0495 45.9379 40.7947 45.2411 41.7131 45.2411H44.9234V42.2394C44.9234 41.3806 45.6686 40.6838 46.587 40.6838C47.5055 40.6838 48.2507 41.3806 48.2507 42.2394V45.2411H51.4609C52.3794 45.2411 53.1245 45.9379 53.1245 46.7967C53.1245 47.6554 52.3794 48.3522 51.4609 48.3522H48.2507V51.3539C48.2507 52.2127 47.5055 52.9095 46.587 52.9095C45.6686 52.9095 44.9234 52.2127 44.9234 51.3539V48.3522H41.7131ZM87.35 52.2492C86.4315 52.2492 85.6864 51.5524 85.6864 50.6936C85.6864 49.8348 86.4315 49.1381 87.35 49.1381H90.1487V46.5212C90.1487 45.6624 90.8938 44.9657 91.8123 44.9657C92.7308 44.9657 93.4759 45.6624 93.4759 46.5212V49.1381H96.2746C97.1931 49.1381 97.9383 49.8348 97.9383 50.6936C97.9383 51.5524 97.1931 52.2492 96.2746 52.2492H93.4759V54.8661C93.4759 55.7248 92.7308 56.4216 91.8123 56.4216C90.8938 56.4216 90.1487 55.7248 90.1487 54.8661V52.2492H87.35ZM62.1792 95.728C61.5423 96.3438 60.4939 96.364 59.8353 95.7726C59.1768 95.1771 59.1551 94.1968 59.7877 93.581L62.0708 91.349C62.7077 90.7332 63.7561 90.713 64.4147 91.3044C65.0732 91.8999 65.0949 92.8802 64.4623 93.496L62.1792 95.728ZM49.9315 92.7992C49.299 93.419 48.2462 93.4433 47.5876 92.8559C46.9248 92.2645 46.8988 91.2801 47.527 90.6643L49.8058 88.4323C50.4384 87.8125 51.4911 87.7882 52.1497 88.3756C52.8125 88.967 52.8385 89.9514 52.2103 90.5672L49.9315 92.7992ZM64.3497 110.348C63.7171 110.964 62.6687 110.988 62.0101 110.397C61.3516 109.805 61.3256 108.825 61.9582 108.209L64.2413 105.977C64.8739 105.361 65.9223 105.337 66.5808 105.928C67.2394 106.52 67.2654 107.5 66.6328 108.116L64.3497 110.348ZM90.0706 100.071C89.4381 100.69 88.3853 100.715 87.7267 100.127C87.0639 99.536 87.0379 98.5516 87.6661 97.9358L89.9449 95.7038C90.5775 95.084 91.6302 95.0597 92.2888 95.6471C92.9516 96.2385 92.9776 97.2229 92.3494 97.8387L90.0706 100.071ZM55.6843 97.2472C56.8887 97.2472 57.9805 97.7049 58.7689 98.4421L58.8729 98.5475C59.6008 99.2766 60.0427 100.257 60.0427 101.322C60.0427 102.44 59.5531 103.465 58.7603 104.203C57.9762 104.944 56.8844 105.402 55.6801 105.402C54.4844 105.402 53.3926 104.944 52.6041 104.207C51.807 103.461 51.3218 102.44 51.3218 101.322C51.3218 100.204 51.807 99.1835 52.5998 98.4462C53.3969 97.7009 54.4886 97.2472 55.6843 97.2472ZM56.4165 100.642C56.2302 100.468 55.9703 100.358 55.6843 100.358C55.3941 100.358 55.1341 100.464 54.9522 100.634C54.7615 100.812 54.6489 101.055 54.6489 101.322C54.6489 101.594 54.7615 101.837 54.9435 102.007C55.1341 102.185 55.3941 102.291 55.68 102.291C55.9659 102.291 56.2259 102.181 56.4122 102.007C56.6028 101.837 56.7154 101.594 56.7154 101.322C56.7154 101.079 56.6201 100.856 56.4685 100.69L56.4122 100.642L56.4165 100.642ZM72.3852 94.4358C73.5809 94.4358 74.6727 94.8935 75.4612 95.6307C76.2583 96.3802 76.7435 97.3969 76.7435 98.5149C76.7435 99.633 76.2539 100.654 75.4655 101.391C74.6683 102.136 73.5809 102.59 72.3852 102.59C71.1895 102.59 70.0977 102.136 69.3092 101.395C68.5121 100.65 68.0269 99.633 68.0269 98.5149C68.0269 97.3969 68.5121 96.376 69.3049 95.6388C70.1064 94.8934 71.1938 94.4398 72.3895 94.4398L72.3852 94.4358ZM73.1174 97.8263C72.9311 97.6522 72.6755 97.5468 72.3852 97.5468C72.0949 97.5468 71.835 97.6522 71.653 97.8223C71.4624 98.0005 71.3498 98.2436 71.3498 98.5109C71.3498 98.7824 71.4624 99.0254 71.6444 99.1915C71.835 99.3698 72.0949 99.4751 72.3809 99.4751C72.6711 99.4751 72.9311 99.3698 73.1087 99.1996C73.2993 99.0214 73.412 98.7783 73.412 98.511C73.412 98.2395 73.2993 97.9965 73.113 97.8223L73.1174 97.8263ZM81.4962 101.865C82.6919 101.865 83.7837 102.323 84.5722 103.06C85.3693 103.809 85.8545 104.826 85.8545 105.944C85.8545 107.062 85.3649 108.083 84.5765 108.82C83.7794 109.566 82.6876 110.019 81.4919 110.019C80.2962 110.019 79.2044 109.566 78.4159 108.824C77.6188 108.079 77.1336 107.062 77.1336 105.944C77.1336 104.826 77.6188 103.805 78.4116 103.068C79.2131 102.323 80.2962 101.869 81.4919 101.869L81.4962 101.865ZM82.2284 105.256C82.0421 105.081 81.7822 104.976 81.4962 104.976C81.206 104.976 80.946 105.081 80.7684 105.252C80.5778 105.43 80.4651 105.673 80.4651 105.94C80.4651 106.212 80.5778 106.455 80.7597 106.621C80.9503 106.799 81.2103 106.904 81.4962 106.904C81.7865 106.904 82.0464 106.799 82.2284 106.629C82.419 106.451 82.5317 106.208 82.5317 105.94C82.5317 105.669 82.419 105.426 82.2327 105.252L82.2284 105.256ZM40.4124 83.6967C43.1244 82.6273 46.5514 81.8576 49.8787 81.5173C53.1669 81.177 56.4162 81.2459 58.8554 81.8333C63.6341 82.9797 67.4639 84.3164 70.8469 85.4912C80.4474 88.8292 86.2744 90.8546 99.9173 82.6151C100.688 82.1533 101.715 82.3639 102.213 83.0809C102.361 83.2956 102.443 83.5306 102.469 83.7696C102.569 84.4461 102.647 85.1186 102.694 85.795C102.746 86.512 102.772 87.2129 102.772 87.8974C102.772 96.0964 99.2155 103.521 93.4664 108.897C87.7087 114.281 79.7669 117.607 70.9984 117.607C62.2299 117.607 54.2889 114.281 48.5393 108.905C42.7816 103.522 39.2247 96.096 39.2247 87.8972L39.2681 86.447L39.3807 84.9887C39.4414 84.3932 39.8529 83.9111 40.4075 83.6965L40.4124 83.6967ZM50.2426 84.6001C47.5739 84.8755 44.8617 85.4386 42.6089 86.2164L42.5569 87.8975C42.5569 95.2418 45.7412 101.898 50.8838 106.706C56.0263 111.515 63.1447 114.492 70.9993 114.492C78.8539 114.492 85.9721 111.515 91.1149 106.706C96.2578 101.898 99.4417 95.2418 99.4417 87.8975L99.4071 86.5647C85.9893 94.0671 79.6985 91.8795 69.6823 88.3957C66.3637 87.2412 62.6032 85.9328 58.028 84.835C56.0005 84.3488 53.1714 84.3043 50.2341 84.6081L50.2426 84.6001ZM62.9017 42.1749H80.6949C81.4487 42.1749 82.1246 41.8873 82.6141 41.4295C83.108 40.9637 83.4156 40.3236 83.4156 39.6268C83.4156 38.922 83.108 38.2859 82.6185 37.8282C82.1246 37.3664 81.4401 37.0788 80.6906 37.0788H61.3203C60.5664 37.0788 59.8906 37.3664 59.401 37.8241C58.9071 38.2859 58.5995 38.926 58.5995 39.6268C58.5995 40.3236 58.9071 40.9637 59.401 41.4255L59.466 41.4943C59.9469 41.9156 60.6054 42.1749 61.3203 42.1749H62.9059L62.9017 42.1749ZM99.2677 69.0694C95.1086 63.6209 89.1819 59.4241 82.2764 57.2078C80.8034 56.7338 79.586 55.8669 78.7369 54.7529C77.8834 53.6389 77.4112 52.2859 77.4112 50.8317V45.2859H64.6134V50.8317C64.6134 52.2859 64.1325 53.6389 63.2877 54.7529C62.4342 55.8669 61.2168 56.7338 59.7481 57.2078C52.8423 59.4277 46.9159 63.6244 42.7569 69.0694C38.7061 74.3721 36.3232 80.8698 36.3232 87.8895C36.3232 96.8502 40.2051 104.956 46.4827 110.826C52.756 116.696 61.4333 120.325 71.0125 120.325C80.5917 120.325 89.2648 116.696 95.5423 110.826C101.82 104.956 105.702 96.8464 105.702 87.8854C105.702 80.8652 103.315 74.3676 99.2682 69.0653L99.2677 69.0694Z" fill="#40403E"/>
</svg>
