<svg width="142" height="150" viewBox="0 0 142 150" fill="none" xmlns="http://www.w3.org/2000/svg">
<path d="M91.1441 110.064H52.1568V118.377H91.1441V110.064ZM110.608 70.1591H57.2112C56.6647 70.1591 56.2189 69.7041 56.2189 69.1462C56.2189 68.5883 56.6647 68.1332 57.2112 68.1332H110.608V63.4563H32.6924V68.1332H49.8816C50.4281 68.1332 50.8739 68.5883 50.8739 69.1462C50.8739 69.7041 50.4281 70.1591 49.8816 70.1591H32.6924V79.2044C32.6924 85.6421 34.5799 91.6524 37.8163 96.6857C40.9868 101.616 45.4518 105.612 50.7033 108.152C50.8389 108.077 50.9979 108.033 51.1645 108.033H92.1402C92.3069 108.033 92.4658 108.077 92.6014 108.148C94.2254 107.365 95.7757 106.439 97.237 105.386C98.9734 104.14 100.578 102.723 102.016 101.164C102.392 100.761 103.016 100.741 103.411 101.125C103.807 101.509 103.826 102.146 103.45 102.549C101.903 104.215 100.202 105.723 98.3726 107.036C96.7292 108.215 94.9773 109.252 93.1324 110.123V119.377C93.1324 119.935 92.6867 120.39 92.1402 120.39H51.1645C50.618 120.39 50.1723 119.935 50.1723 119.377V110.123C44.4477 107.428 39.5833 103.123 36.1532 97.7849C32.7114 92.4354 30.7076 86.0409 30.7076 79.1955V62.4344C30.7076 61.8765 31.1534 61.4214 31.6998 61.4214H88.6592L92.7212 53.3377C92.9692 52.8431 93.5661 52.6452 94.0505 52.8985C94.535 53.1517 94.7288 53.761 94.4808 54.2556L90.8801 61.4213H100.384L107.845 46.5868C107.98 46.3178 108.221 46.1358 108.484 46.0685C109.43 45.8232 110.329 45.3721 111.104 44.7469C111.829 44.1573 112.457 43.4056 112.914 42.5232L112.992 42.3689C113.829 40.6556 113.922 38.7484 113.383 37.0549C112.852 35.3614 111.693 33.8697 110.038 32.9755L109.887 32.8964C108.205 32.0417 106.341 31.9507 104.682 32.4967C102.996 33.0507 101.519 34.2575 100.647 35.9906C100.182 36.9125 99.934 37.8938 99.8914 38.8671C99.8448 39.8721 100.012 40.8811 100.372 41.8109C100.492 42.1195 100.453 42.448 100.294 42.7091L97.841 47.5839C97.5929 48.0785 96.9961 48.2763 96.5116 48.0231C96.0271 47.7698 95.8333 47.1605 96.0814 46.6659L98.372 42.1156C98.0193 41.0473 97.8643 39.9077 97.9147 38.7682C97.9728 37.5178 98.2906 36.2595 98.8837 35.0686C100.008 32.837 101.911 31.278 104.073 30.5697C106.228 29.8615 108.647 29.9881 110.829 31.1197L110.86 31.1355C113.046 32.283 114.569 34.2219 115.267 36.4337C115.961 38.6337 115.837 41.1028 114.728 43.3265L114.709 43.3581C114.112 44.5452 113.29 45.5463 112.333 46.3257C111.453 47.038 110.457 47.5682 109.403 47.9006L102.608 61.4172H111.608C112.155 61.4172 112.6 61.8723 112.6 62.4302V79.1913C112.6 82.2577 112.193 85.2492 111.43 88.102C110.643 91.0419 109.48 93.8235 108 96.3875C107.725 96.8663 107.112 97.0246 106.643 96.7436C106.174 96.4627 106.019 95.8375 106.294 95.3588C107.69 92.9412 108.786 90.3217 109.523 87.5718C110.236 84.9128 110.616 82.1035 110.616 79.1953V70.15L110.608 70.1591ZM53.8267 68.1332C54.3732 68.1332 54.8189 68.5883 54.8189 69.1462C54.8189 69.7041 54.3732 70.1591 53.8267 70.1591H53.2647C52.7182 70.1591 52.2725 69.7041 52.2725 69.1462C52.2725 68.5883 52.7182 68.1332 53.2647 68.1332H53.8267ZM40.2571 32.1698C38.168 32.1698 36.2727 33.0364 34.9007 34.4292C33.5325 35.8259 32.6876 37.7609 32.6876 39.8974C32.6876 42.0341 33.5364 43.965 34.9007 45.3657C36.2727 46.7624 38.1681 47.6251 40.2571 47.6251C42.3461 47.6251 44.2415 46.7585 45.6096 45.3617L45.6678 45.3103C47.0011 43.9215 47.8305 42.0104 47.8305 39.9014C47.8305 37.7647 46.9817 35.8339 45.6174 34.4371C44.2453 33.0404 42.35 32.1738 40.261 32.1738L40.2571 32.1698ZM33.5015 33.0008C35.2301 31.236 37.6215 30.14 40.2571 30.14C42.8966 30.14 45.2841 31.2321 47.0127 32.9968C48.7375 34.7655 49.8111 37.2068 49.8111 39.8935C49.8111 42.5485 48.7646 44.9661 47.0709 46.7229L47.0127 46.7863C45.2841 48.551 42.8966 49.643 40.2571 49.643C37.6216 49.643 35.2301 48.551 33.5015 46.7863C31.7767 45.0176 30.7031 42.5802 30.7031 39.8896C30.7031 37.1989 31.7728 34.7615 33.5054 32.9929L33.5015 33.0008ZM63.3613 29.6929C62.2374 29.6929 61.2141 30.1598 60.4816 30.9037C59.7452 31.6555 59.2917 32.6961 59.2917 33.8435C59.2917 34.991 59.7491 36.0317 60.4816 36.7834L60.532 36.8388C61.2568 37.5549 62.2568 37.9981 63.3614 37.9981C64.4854 37.9981 65.5087 37.5312 66.2411 36.7873C66.9776 36.0316 67.431 34.991 67.431 33.8435C67.431 32.6961 66.9737 31.6514 66.245 30.9037C65.5086 30.1519 64.4893 29.6889 63.3653 29.6889L63.3613 29.6929ZM59.0785 29.4832C60.1793 28.3594 61.6947 27.667 63.3613 27.667C65.0241 27.667 66.5357 28.3594 67.6364 29.4753C68.7372 30.603 69.4155 32.1461 69.4155 33.8475C69.4155 35.5529 68.7372 37.1039 67.6403 38.2198C66.5434 39.3396 65.028 40.032 63.3613 40.032C61.7258 40.032 60.2374 39.3673 59.1483 38.2831L59.0824 38.2238C57.9855 37.1039 57.3072 35.5569 57.3072 33.8515C57.3072 32.154 57.9855 30.6109 59.0785 29.4871L59.0785 29.4832ZM78.9001 45.3225C77.7761 45.3225 76.7567 45.7894 76.0204 46.5372L75.97 46.5847C75.2646 47.3326 74.8305 48.3495 74.8305 49.4732C74.8305 50.6207 75.2879 51.6614 76.0204 52.4131C76.7568 53.1609 77.7761 53.6278 78.9001 53.6278C80.0241 53.6278 81.0435 53.1609 81.7798 52.4131C82.5124 51.6613 82.9697 50.6207 82.9697 49.4732C82.9697 48.3258 82.5124 47.2891 81.7798 46.5334L81.7333 46.4819C81.0008 45.7618 80.0047 45.3187 78.9039 45.3187L78.9001 45.3225ZM74.6173 45.1049C75.7142 43.9851 77.2296 43.2927 78.9001 43.2927C80.5357 43.2927 82.024 43.9614 83.1132 45.0416L83.1791 45.101C84.276 46.2208 84.9542 47.7678 84.9542 49.4693C84.9542 51.1746 84.276 52.7256 83.1791 53.8415C82.0822 54.9574 80.5667 55.6538 78.9001 55.6538C77.2296 55.6538 75.7103 54.9613 74.6173 53.8415C73.5243 52.7217 72.8421 51.1746 72.8421 49.4693C72.8421 47.7995 73.4971 46.2801 74.5553 45.1682L74.6134 45.1009L74.6173 45.1049ZM94.5202 49.7621C94.7722 49.2675 95.369 49.0736 95.8536 49.3268C96.338 49.584 96.528 50.1934 96.2799 50.688L96.0241 51.1985C95.7722 51.6931 95.1753 51.8869 94.6908 51.6337C94.2063 51.3765 94.0164 50.7672 94.2644 50.2725L94.5202 49.7621ZM105.713 99.8469C105.384 100.29 104.76 100.381 104.326 100.045C103.892 99.7084 103.803 99.0714 104.132 98.6282L104.469 98.1732C104.799 97.73 105.423 97.639 105.857 97.9754C106.291 98.3117 106.38 98.9487 106.051 99.3919L105.713 99.8469Z" fill="#40403E"/>
<path d="M71.0127 1C109.639 1 140.957 32.3864 140.957 71.1084C140.957 109.83 109.639 141.217 71.0127 141.217C32.3862 141.217 1.06936 109.83 1.06934 71.1084C1.06934 32.3866 32.3862 1.0002 71.0127 1Z" stroke="#40403E" stroke-width="2"/>
</svg>
