<svg width="143" height="150" viewBox="0 0 143 150" fill="none" xmlns="http://www.w3.org/2000/svg">
<g clip-path="url(#clip0_826_4282)">
<path fill-rule="evenodd" clip-rule="evenodd" d="M42.4634 33.76C33.1618 34.0546 33.1618 47.7495 42.4634 48.0403C51.7612 47.7457 51.765 34.0547 42.4634 33.76ZM46.1306 37.1827C50.8291 42.2412 43.7966 49.389 38.8 44.6211C34.1015 39.5549 41.1378 32.4148 46.1306 37.1827ZM49.3775 55.6763C51.7918 50.583 53.7056 44.1834 53.7056 40.8959C53.7056 34.5932 48.6709 29.4844 42.4596 29.4844C36.2483 29.4844 31.2136 34.5932 31.2136 40.8959C31.2136 44.1829 33.1274 50.5786 35.5416 55.6723C40.5917 66.1421 44.3394 66.1303 49.3775 55.6763ZM49.1063 34.1631C54.4046 39.8107 50.9094 47.0978 47.7158 54.8695C45.9051 58.6915 43.8959 61.7266 42.4672 61.7266C37.9596 60.4358 32.9249 44.5825 33.0738 40.9001C32.9554 32.4925 43.4256 28.1975 49.1063 34.1631ZM125.07 96.3102C125.105 95.8373 125.086 95.3334 125.07 94.876V79.5151C125.07 75.8638 122.125 72.8675 118.523 72.8713H114.936L107.292 59.4326C105.642 56.5293 102.758 54.8393 99.4576 54.8431H86.8748V53.3315C86.8748 52.8121 86.4585 52.3895 85.9466 52.3895H56.307C55.7952 52.3895 55.3788 52.8121 55.3788 53.3315V69.0149H41.4778C40.9659 69.0149 40.5495 69.4374 40.5495 69.9568V85.6402H30.4614C29.7623 85.6363 29.1931 86.2255 29.1931 86.9271V92.3498C29.0633 92.4274 28.941 92.5165 28.8341 92.625C27.9707 93.3538 28.3871 95.4586 28.2954 96.4818C28.2954 97.4935 29.1206 98.3347 30.1176 98.3308H38.9837H41.7265C42.1619 99.6448 42.903 100.893 44.0031 101.971C48.9424 107.161 57.4954 104.602 59.6077 98.3308H93.4522C93.8877 99.6448 94.6288 100.893 95.7289 101.971C100.668 107.161 109.217 104.602 111.333 98.3308H123.244C123.42 98.3308 123.588 98.2959 123.749 98.2494C123.951 98.1874 124.138 98.0982 124.306 97.9742C124.383 97.916 124.463 97.8579 124.532 97.7881C124.662 97.6796 124.757 97.5284 124.834 97.3618C124.979 97.0982 125.067 96.7997 125.067 96.4819L125.07 96.3102ZM123.218 84.8173H116.311V81.5187H123.218V84.8173ZM99.4575 56.7232C102.12 56.7232 104.359 58.0372 105.692 60.3707L113.561 74.2014C113.706 74.527 114.031 74.7519 114.405 74.7519C116.644 74.8565 120.177 74.1859 121.835 76.1512H121.839C122.687 77.0117 123.214 78.2017 123.214 79.5119V79.6359H116.204C115.242 79.6359 114.455 80.4421 114.455 81.4112V84.9192C114.455 85.8883 115.249 86.6984 116.204 86.6946H123.214V92.0786H111.299C110.019 88.3342 106.52 85.6364 102.398 85.6364C98.0437 85.5743 94.8235 88.4738 93.5744 92.0786H86.8741V56.7238L99.4575 56.7232ZM56.269 87.5233H85.0216V92.0818H59.5763C58.946 90.2406 57.7856 88.6591 56.269 87.5233ZM57.2278 70.8983H59.6574V76.1233C59.6574 76.6427 60.0737 77.0653 60.5856 77.0653H66.8389C67.3508 77.0653 67.7671 76.6427 67.7671 76.1233V70.8983H70.1966V85.6429L57.2276 85.639L57.2278 70.8983ZM61.51 70.8983H65.9106V75.1814H61.51V70.8983ZM76.3352 70.8983H80.7358V75.1814H76.3352V70.8983ZM75.4069 77.0614H81.664C82.1759 77.0614 82.5922 76.6389 82.5922 76.1194V70.8944H85.0218V85.639H72.0488V70.8983H74.4783V76.1234C74.4821 76.6428 74.895 77.0614 75.4069 77.0614ZM85.0217 55.7853V69.0187H72.0488V54.2741H74.4783V59.4991C74.4783 60.0186 74.8947 60.4411 75.4065 60.4411H81.6636C82.1755 60.4411 82.5919 60.0186 82.5919 59.4991V54.2741H85.0214L85.0217 55.7853ZM80.7357 54.2737V58.5568H76.3351V54.2737H80.7357ZM61.51 54.2737H65.9106V58.5568H61.51V54.2737ZM57.2278 54.2737H59.6573V59.4987C59.6573 60.0182 60.0737 60.4407 60.5856 60.4407H66.8389C67.3507 60.4407 67.7671 60.0182 67.7671 59.4987V54.2737H70.1966V69.0183H57.2276L57.2278 54.2737ZM51.0892 70.8987V75.1819H46.6886V70.8987H51.0892ZM42.4026 70.8987H44.8321V76.1238C44.8321 76.6432 45.2485 77.0657 45.7604 77.0657H52.0174C52.5293 77.0657 52.9457 76.6432 52.9457 76.1238V70.8987H55.3752V85.6434H50.6843H50.6766H50.669H42.4026L42.4026 70.8987ZM31.05 87.5238H45.0693C43.5758 88.6867 42.4718 90.2953 41.8529 92.0823H31.0499L31.05 87.5238ZM38.9879 96.4546H30.1523V93.9661H38.0902H41.3792C41.2608 94.7878 41.2493 95.6251 41.341 96.4546H38.9879ZM45.3214 100.645C44.3053 99.5517 43.675 98.3889 43.3466 97.2299C43.3313 97.1446 43.3122 97.0593 43.274 96.9818C42.1509 92.4273 45.7226 87.9541 50.0582 87.5239H51.3952C52.9538 87.6751 54.5544 88.3612 56.0327 89.7721C57.0565 90.8846 57.6905 92.0668 58.019 93.2413C58.0343 93.3033 58.0458 93.3653 58.0725 93.4235C59.7265 100.052 51.502 106.498 45.3214 100.645ZM60.0244 96.4546C60.0702 96.0476 60.1122 95.6367 60.1046 95.2103C60.1046 94.7878 60.0664 94.3731 60.0167 93.9661L85.947 93.9622H93.1056C92.9872 94.784 92.9758 95.6212 93.0674 96.4507L60.0244 96.4546ZM97.0432 100.645C96.0004 99.5207 95.3586 98.3269 95.0377 97.1329C95.0262 97.0903 95.0186 97.0515 95.0033 97.0128C93.3378 90.3961 101.608 83.9074 107.758 89.772C108.805 90.9116 109.45 92.1171 109.768 93.3226C109.775 93.3458 109.779 93.373 109.79 93.3962C111.475 100.028 103.235 106.506 97.0432 100.645ZM123.218 96.4546H111.747C111.793 96.0476 111.835 95.6367 111.827 95.2103C111.827 94.7878 111.789 94.3731 111.739 93.9661H123.218L123.218 96.4546ZM96.5963 80.6749H92.9177C91.7067 80.6711 91.7029 78.7989 92.9177 78.795H96.5963C97.8072 78.7989 97.8072 80.6711 96.5963 80.6749ZM102.399 90.9929C96.921 91.1325 96.921 99.2841 102.399 99.4237C107.873 99.2764 107.877 91.1402 102.399 90.9929ZM100.771 96.8577C98.6667 94.6521 101.853 91.4232 104.026 93.5513C106.119 95.784 102.979 98.9858 100.771 96.8577ZM90.3812 75.5003H108.679C109.191 75.5003 109.607 75.0778 109.607 74.5583C107.667 70.5659 103.308 62.9216 101.173 60.8943C100.16 60.2935 99.3353 59.5608 96.7262 59.4795H90.3812C89.8693 59.4795 89.4529 59.902 89.4529 60.4214V74.5578C89.4529 75.0772 89.8693 75.5003 90.3812 75.5003ZM91.3056 61.3599L96.7262 61.356C98.4146 61.3638 99.381 61.9762 99.8242 62.2553C101.795 63.7787 104.905 69.9263 107.071 73.6162H91.3058L91.3056 61.3599ZM50.6763 90.9931C49.5303 90.9931 48.4913 91.466 47.7388 92.2258V92.2297C45.1335 94.7375 47.0359 99.5052 50.6763 99.4239C56.1504 99.2766 56.1542 91.1404 50.6763 90.9931ZM49.049 96.8617C46.9442 94.66 50.13 91.4273 52.3036 93.5554C54.3931 95.7842 51.2531 98.986 49.049 96.8617Z" fill="#40403E"/>
</g>
<path d="M71.8174 1C110.395 1 141.762 34.0778 141.762 75C141.762 115.922 110.395 149 71.8174 149C33.2404 149 1.87402 115.922 1.87402 75C1.87402 34.0779 33.2404 1.00021 71.8174 1Z" stroke="#40403E" stroke-width="2"/>
<defs>
<clipPath id="clip0_826_4282">
<rect width="107.57" height="133.961" fill="white" transform="translate(17.709 7.15723)"/>
</clipPath>
</defs>
</svg>
